# xmcd
#
# Track frame offsets: 
#        150
#        8625
#        21075
#        32325
#        67425
#        80625
#        97950
#        119625
#        131700
#
# Disc length: 1928 seconds
#
# Revision: 0
# Processed by: cddbd v1.5.2PL0 Copyright (c) Steve Scherf et al.
# Submitted via: ExactAudioCopy v0.99pb1
#
DISCID=74078609
DTITLE=Whitey - The Whitey Album
DYEAR=2007
DGENRE=Blues
TTITLE0=Texxxass* 69
TTITLE1=Barely Legal
TTITLE2=Oh, Oh Marie
TTITLE3=Well, Well, Well
TTITLE4=CNHC
TTITLE5=Nightmares By The Sea
TTITLE6=Imprisonment Blues
TTITLE7=Going To NOLA
TTITLE8=The 7% Solution
EXTD=
EXTT0=
EXTT1=
EXTT2=
EXTT3=
EXTT4=
EXTT5=
EXTT6=
EXTT7=
EXTT8=
PLAYORDER=
